<?xml version="1.0" encoding="UTF-8" standalone="no"?>
<svg
   height="24"
   width="24"
   version="1.1"
   id="svg1"
   sodipodi:docname="logo_gradient.svg"
   inkscape:version="1.3 (0e150ed, 2023-07-21)"
   xmlns:inkscape="http://www.inkscape.org/namespaces/inkscape"
   xmlns:sodipodi="http://sodipodi.sourceforge.net/DTD/sodipodi-0.dtd"
   xmlns:xlink="http://www.w3.org/1999/xlink"
   xmlns="http://www.w3.org/2000/svg"
   xmlns:svg="http://www.w3.org/2000/svg">
  <defs
     id="defs1">
    <linearGradient
       id="linearGradient5"
       inkscape:collect="always">
      <stop
         style="stop-color:#00897b;stop-opacity:0.89999998;"
         offset="0"
         id="stop5" />
      <stop
         style="stop-color:#00897b;stop-opacity:1;"
         offset="0.19925071"
         id="stop7" />
      <stop
         style="stop-color:#00897b;stop-opacity:1;"
         offset="0.60000002"
         id="stop8" />
      <stop
         style="stop-color:#00897b;stop-opacity:0.80000001;"
         offset="1"
         id="stop6" />
    </linearGradient>
    <linearGradient
       inkscape:collect="always"
       xlink:href="#linearGradient5"
       id="linearGradient6"
       x1="-24.049999"
       y1="12.025"
       x2="0"
       y2="12.025"
       gradientUnits="userSpaceOnUse"
       gradientTransform="scale(0.99792103)" />
  </defs>
  <sodipodi:namedview
     id="namedview1"
     pagecolor="#ffffff"
     bordercolor="#000000"
     borderopacity="0.25"
     inkscape:showpageshadow="2"
     inkscape:pageopacity="0.0"
     inkscape:pagecheckerboard="0"
     inkscape:deskcolor="#d1d1d1"
     inkscape:zoom="36.041667"
     inkscape:cx="12"
     inkscape:cy="12"
     inkscape:window-width="2304"
     inkscape:window-height="1170"
     inkscape:window-x="1440"
     inkscape:window-y="25"
     inkscape:window-maximized="0"
     inkscape:current-layer="svg1" />
  <rect
     style="fill:#000000;fill-opacity:1;stroke-width:0.671046"
     id="rect2-5-2"
     width="12"
     height="24"
     x="-24"
     y="0"
     transform="rotate(-90)" />
  <rect
     style="fill:#ffffff;fill-opacity:1;stroke-width:0.671046"
     id="rect2-5-2-9"
     width="12"
     height="24"
     x="-12"
     y="0"
     transform="rotate(-90)" />
  <rect
     style="fill:url(#linearGradient6);stroke-width:0.949003"
     id="rect2-5"
     width="24"
     height="24"
     x="-24"
     y="0"
     transform="rotate(-90)" />
  <path
     d="M 2,17 Q 2,14.930234 2.7804426,13.116278 3.5599529,11.302327 4.9215364,9.941395 6.2840505,8.5813951 8.1122238,7.7906975 9.939465,7 11.988355,7 q 2.072175,0 3.888246,0.7906975 1.81607,0.7906976 3.177652,2.1506975 1.362508,1.360932 2.154127,3.174883 Q 22,14.930234 22,17 h -1.746218 q 0,-3.418605 -2.421422,-5.83721 -2.421422,-2.4186042 -5.844005,-2.4186042 -3.4225813,0 -5.8318939,2.4186042 Q 3.7462163,13.581395 3.7462163,17 Z m 3.4924325,0 q 0,-2.697673 1.8970904,-4.604649 1.898021,-1.906979 4.5988321,-1.906979 2.700816,0 4.610013,1.906979 Q 18.507564,14.302327 18.507564,17 h -1.746218 q 0,-1.976747 -1.396971,-3.372093 -1.396971,-1.395351 -3.37602,-1.395351 -1.979043,0 -3.3648396,1.395351 Q 7.23865,15.023253 7.23865,17 Z"
     id="path1"
     style="fill:#9c91b1;fill-opacity:1;fill-rule:nonzero;stroke-width:0.93079" />
</svg>
