<?xml version="1.0" standalone="no"?>
<!DOCTYPE svg PUBLIC "-//W3C//DTD SVG 20010904//EN"
 "http://www.w3.org/TR/2001/REC-SVG-20010904/DTD/svg10.dtd">
<svg version="1.0" xmlns="http://www.w3.org/2000/svg"
 width="700.000000pt" height="700.000000pt" viewBox="0 0 700.000000 700.000000"
 preserveAspectRatio="xMidYMid meet">
<metadata>
Created by potrace 1.14, written by Peter Selinger 2001-2017
</metadata>
<g transform="translate(0.000000,700.000000) scale(0.100000,-0.100000)"
fill="#000000" stroke="none">
<path d="M3367 4894 c-1 -1 -45 -4 -97 -8 -52 -3 -104 -8 -115 -10 -11 -2 -49
-7 -85 -12 -36 -4 -67 -8 -70 -9 -3 -1 -25 -5 -50 -9 -25 -5 -52 -10 -60 -11
-127 -24 -451 -124 -475 -146 -5 -5 -15 -9 -22 -9 -25 0 -353 -159 -384 -186
-8 -8 -19 -14 -23 -14 -17 0 -265 -169 -345 -235 -317 -261 -562 -562 -741
-909 -174 -336 -258 -626 -295 -1011 -4 -41 -7 -151 -6 -195 l1 -25 224 0
c124 0 227 3 230 6 3 3 8 54 11 113 3 59 7 120 9 134 3 15 7 54 11 87 4 32 8
62 10 65 1 3 6 27 9 54 4 27 9 53 11 56 2 4 7 22 10 41 3 19 10 45 15 59 5 14
16 52 25 85 41 148 144 365 250 530 218 337 576 662 929 844 212 109 474 198
666 226 25 4 66 11 91 15 209 40 656 31 894 -16 11 -3 35 -7 54 -10 58 -10
243 -64 341 -100 166 -61 464 -220 553 -294 6 -6 37 -29 67 -52 269 -205 528
-507 680 -793 48 -91 119 -263 143 -345 53 -183 66 -247 92 -442 3 -18 7 -82
10 -142 3 -60 7 -112 11 -115 9 -9 437 -8 450 1 6 4 9 22 8 40 -1 18 -5 78 -8
133 -6 97 -9 118 -21 208 -41 298 -148 612 -301 890 -243 441 -569 786 -1002
1060 -110 70 -380 206 -487 246 -33 13 -69 27 -80 32 -71 32 -368 112 -460
125 -27 3 -53 8 -56 10 -6 3 -127 19 -236 30 -55 5 -381 12 -386 8z"/>
<path d="M3299 3996 c-2 -2 -31 -7 -64 -10 -95 -8 -259 -43 -369 -77 -110 -34
-302 -113 -327 -135 -8 -8 -19 -14 -24 -14 -16 0 -192 -117 -270 -179 -325
-260 -552 -594 -651 -959 -14 -52 -27 -104 -29 -116 -2 -11 -8 -48 -14 -81
-16 -93 -27 -245 -22 -305 1 -13 33 -15 231 -15 l230 0 1 45 c3 200 54 410
140 584 209 420 639 733 1099 801 183 27 476 22 590 -10 8 -2 30 -7 48 -10
123 -21 356 -120 483 -205 123 -83 271 -218 360 -330 186 -232 291 -524 298
-825 l1 -50 228 0 c125 -1 229 3 233 7 16 23 -11 285 -45 433 -96 417 -353
799 -726 1076 -265 198 -537 306 -915 365 -45 7 -480 16 -486 10z"/>
</g>
</svg>
