<?xml version="1.0" standalone="no"?>
<!DOCTYPE svg PUBLIC "-//W3C//DTD SVG 20010904//EN"
 "http://www.w3.org/TR/2001/REC-SVG-20010904/DTD/svg10.dtd">
<svg version="1.0" xmlns="http://www.w3.org/2000/svg"
 width="692.000000pt" height="692.000000pt" viewBox="0 0 692.000000 692.000000"
 preserveAspectRatio="xMidYMid meet">
<metadata>
Created by potrace 1.11, written by Peter Selinger 2001-2013
</metadata>
<g transform="translate(0.000000,692.000000) scale(0.100000,-0.100000)"
fill="#000000" stroke="none">
<path d="M3033 6822 c-23 -26 -49 -57 -59 -68 -11 -12 -37 -43 -59 -69 -22
-27 -55 -64 -73 -84 -29 -31 -26 -25 15 39 26 41 53 78 58 82 6 4 6 8 2 8 -5
0 5 19 22 42 38 52 39 61 4 54 -16 -3 -55 -9 -87 -12 -33 -3 -69 -8 -80 -10
-12 -3 -41 -7 -66 -9 -25 -3 -61 -7 -80 -10 -57 -8 -103 -15 -140 -19 -19 -3
-53 -8 -75 -12 -22 -4 -50 -7 -62 -8 -16 0 -20 -4 -13 -15 6 -12 3 -16 -13
-17 -30 0 -139 -14 -157 -19 -8 -2 -35 -7 -60 -10 -25 -3 -63 -8 -85 -11 -51
-8 -85 -12 -108 -13 -18 -1 -18 -3 2 -36 11 -19 18 -35 15 -35 -4 0 -40 23
-81 50 -41 28 -78 50 -82 50 -4 0 -14 -12 -23 -27 -9 -16 -27 -39 -40 -53 -13
-14 -36 -43 -52 -65 -17 -22 -33 -42 -36 -45 -3 -3 -28 -34 -55 -70 -27 -36
-54 -71 -60 -78 -5 -8 -20 -25 -32 -38 -12 -13 -27 -32 -33 -41 -10 -16 -11
-15 -7 5 3 12 4 22 2 22 -2 0 -26 -33 -55 -72 -28 -40 -93 -131 -143 -203 -51
-71 -113 -159 -138 -195 l-46 -65 46 -37 c25 -21 62 -52 81 -69 l35 -31 -45
23 c-25 13 -50 24 -57 25 -9 2 -12 -55 -13 -224 0 -125 -2 -402 -3 -617 -1
-214 2 -421 7 -460 5 -38 10 -81 11 -95 1 -14 5 -38 8 -55 3 -16 9 -61 12 -98
4 -37 8 -78 11 -90 2 -12 7 -48 9 -79 7 -79 15 -95 83 -174 32 -38 67 -80 78
-93 10 -13 28 -33 39 -45 11 -11 38 -42 59 -68 21 -27 42 -48 46 -48 5 0 11
19 15 43 4 23 9 49 11 57 2 8 16 71 31 140 l28 125 3 -237 2 -238 38 0 c20 -1
141 -1 269 -1 l232 -1 -5 -51 c-2 -29 -6 -102 -9 -164 l-6 -112 23 5 c39 9 53
12 53 14 0 1 9 3 20 6 11 2 95 24 188 48 92 24 167 41 167 38 0 -4 -40 -23
-90 -42 -49 -19 -90 -37 -90 -40 0 -5 113 -32 190 -46 14 -2 45 -9 70 -14 71
-16 91 -21 160 -35 36 -8 76 -17 90 -20 14 -3 45 -10 70 -15 25 -5 98 -20 162
-34 64 -14 128 -27 142 -30 15 -3 34 -7 44 -10 9 -3 34 -7 54 -10 21 -2 41 -7
45 -9 4 -3 26 -8 47 -11 22 -4 45 -11 51 -16 13 -10 14 6 18 148 0 28 3 52 7
52 3 0 5 -49 4 -109 l-1 -109 51 13 c196 47 238 56 242 53 2 -3 -14 -11 -36
-18 -22 -7 -40 -16 -40 -19 0 -3 40 -21 88 -39 48 -19 96 -38 107 -43 11 -4
56 -22 100 -39 44 -17 89 -35 100 -40 95 -42 415 -163 415 -155 0 1 -27 56
-60 120 -33 65 -59 119 -57 121 2 2 13 -13 24 -34 24 -44 49 -88 92 -160 17
-29 31 -56 31 -61 0 -4 9 -16 20 -26 10 -9 18 -20 17 -24 -1 -3 6 -17 14 -31
17 -27 154 -261 187 -320 10 -19 42 -74 71 -122 28 -48 51 -92 51 -98 0 -7
-25 -46 -55 -87 -31 -42 -54 -78 -52 -80 2 -2 41 5 86 16 45 10 81 15 79 10
-2 -4 -59 -49 -128 -98 -69 -50 -132 -97 -140 -104 -8 -7 -64 -49 -125 -92
-60 -44 -112 -82 -115 -85 -20 -23 -108 -76 -119 -72 -8 2 -11 0 -7 -6 4 -6
-2 -8 -14 -5 -10 3 -41 0 -67 -6 -26 -6 -64 -13 -83 -16 -28 -5 -512 -95 -585
-109 -25 -5 -112 -28 -240 -62 -55 -14 -105 -27 -112 -28 -7 -1 -16 -5 -19 -9
-4 -4 -18 -7 -31 -7 -14 0 -32 -4 -41 -9 -9 -5 -30 -11 -47 -14 -16 -3 -42
-10 -57 -16 -16 -6 -28 -7 -28 -3 0 4 42 23 93 41 236 84 317 114 314 117 -1
1 -25 5 -52 8 -28 4 -65 8 -83 11 -19 2 -61 7 -95 10 -34 3 -73 7 -87 9 -14 2
-50 7 -80 10 -30 4 -75 9 -100 13 -25 3 -78 6 -118 7 -48 1 -71 5 -68 12 2 6
-17 27 -43 47 -26 20 -59 47 -73 59 -14 13 -35 30 -46 40 -182 148 -301 246
-316 260 -12 10 -28 15 -41 12 -11 -3 -34 0 -50 7 -17 7 -33 13 -37 14 -5 2
-10 4 -13 5 -3 1 -8 3 -12 5 -5 1 -21 7 -38 14 -16 7 -39 17 -50 21 -48 20 9
8 70 -15 37 -14 69 -24 71 -22 2 1 -13 52 -32 113 -19 60 -36 114 -38 119 -1
6 -15 52 -31 103 -28 91 -29 92 -59 92 -29 -1 -164 3 -466 15 -74 2 -218 8
-320 11 -102 3 -216 7 -255 9 -38 1 -87 9 -109 18 -21 10 -42 17 -46 17 -7 0
14 -68 39 -125 5 -11 23 -58 41 -105 18 -47 36 -94 40 -105 5 -11 45 -117 90
-235 45 -118 85 -224 90 -235 8 -18 136 -350 202 -525 15 -41 26 -81 23 -89
-5 -13 29 -45 50 -47 13 -1 49 -16 132 -55 37 -17 100 -46 138 -64 156 -72
194 -90 294 -136 57 -27 104 -49 106 -49 2 0 49 -22 106 -49 265 -124 310
-143 325 -137 7 3 14 2 16 -2 2 -4 27 -27 56 -50 58 -48 38 -44 282 -57 394
-22 466 -25 450 -19 -8 3 -24 9 -35 14 -27 12 -315 120 -337 127 -10 3 -18 9
-18 14 0 5 17 2 38 -7 20 -9 48 -20 62 -24 29 -9 126 -46 155 -60 11 -5 88
-34 170 -66 83 -31 159 -61 170 -67 16 -8 25 -3 56 33 21 24 46 45 56 46 10 2
41 6 68 9 28 3 61 8 75 10 26 4 137 17 180 20 14 1 43 5 65 8 35 6 73 11 175
22 46 6 115 14 158 20 23 3 61 7 85 10 23 3 60 8 82 10 37 5 59 9 103 19 9 3
46 14 82 26 36 12 70 23 75 24 6 1 24 7 40 13 29 11 385 127 395 128 17 3 117
39 126 46 6 5 9 20 7 33 -4 18 11 46 60 113 36 48 71 95 79 103 7 9 27 36 43
60 17 25 36 51 42 60 16 19 106 139 206 274 43 59 84 106 90 107 7 0 21 2 32
4 27 5 93 15 141 21 21 2 48 6 59 9 11 2 30 4 43 4 15 1 22 7 22 21 0 11 -4
20 -10 20 -5 0 -10 5 -10 11 0 10 -40 115 -66 174 -56 127 -71 177 -63 213 5
21 11 57 14 82 3 25 17 113 30 195 33 204 33 209 1 305 -15 47 -29 90 -30 95
-2 9 -43 139 -122 390 -20 61 -37 128 -40 150 -2 22 -6 63 -9 90 -4 28 -6 60
-6 73 1 12 -1 22 -3 22 -2 0 -46 -57 -97 -127 -52 -71 -97 -132 -101 -138 -5
-5 -36 -47 -69 -92 -33 -46 -63 -83 -66 -83 -3 0 6 15 21 34 14 19 26 37 26
40 0 2 28 51 61 108 34 57 73 123 87 148 14 25 44 78 68 117 24 40 44 76 44
80 0 5 9 19 20 33 37 47 31 49 -125 48 -80 0 -148 2 -151 5 -3 3 -19 1 -35 -3
-16 -5 -31 -5 -34 -1 -2 5 39 18 93 30 144 33 146 35 78 45 -21 4 -42 9 -47
12 -5 3 -17 7 -26 9 -27 6 -238 61 -328 85 -44 12 -138 37 -210 56 -71 19
-137 37 -145 39 -8 2 -69 18 -135 35 -66 17 -162 42 -213 56 -51 14 -100 27
-110 29 -9 2 -44 11 -77 20 -33 9 -100 27 -150 40 -49 13 -97 26 -105 29 -8 3
-26 8 -40 10 -14 3 -101 26 -195 51 -93 25 -206 54 -251 66 -79 20 -80 21 -76
50 5 32 -1 32 145 4 37 -7 67 -11 67 -9 0 6 -64 33 -225 94 -88 33 -187 71
-220 85 -33 13 -91 35 -130 50 -38 14 -79 30 -90 35 -11 5 -198 77 -415 160
-339 129 -397 155 -411 178 -9 15 -35 57 -58 94 -34 56 -41 76 -41 118 0 27
-4 50 -9 50 -9 0 -8 41 4 165 2 22 4 50 4 62 1 13 10 24 22 28 20 7 20 7 1 20
-19 14 -20 38 -8 160 2 22 5 65 7 96 3 66 5 70 119 170 46 41 93 83 105 94
109 105 99 99 183 101 42 1 199 5 347 9 149 4 332 8 407 9 l138 3 37 44 c21
23 45 50 53 59 8 9 32 37 53 63 21 25 43 52 50 59 10 11 69 80 142 166 20 24
74 57 81 50 2 -2 -19 -28 -47 -58 -161 -175 -232 -250 -296 -318 -40 -42 -73
-79 -73 -83 0 -4 17 -10 38 -14 20 -5 42 -9 47 -11 12 -3 141 -32 174 -40 13
-3 51 -12 85 -20 34 -8 72 -17 85 -20 12 -3 53 -12 90 -20 36 -9 75 -18 86
-20 11 -2 44 -10 73 -17 52 -14 71 -9 55 16 -4 6 -8 17 -10 22 -8 40 -14 59
-38 133 -15 46 -25 86 -22 88 3 3 8 -5 12 -18 9 -26 34 -83 106 -237 27 -57
49 -105 49 -107 0 -1 21 -47 46 -101 72 -151 197 -424 199 -433 1 -3 18 -40
38 -82 20 -42 37 -82 37 -88 0 -28 21 -3 50 59 l33 70 104 3 c58 2 111 0 118
-5 8 -4 16 -4 18 0 3 5 141 8 306 8 329 0 313 -3 286 60 -8 20 -17 61 -20 93
-10 102 -16 146 -21 177 -3 17 -7 50 -9 75 -3 25 -7 63 -9 85 -3 22 -7 65 -11
95 -3 30 -8 71 -11 91 -2 20 -6 56 -8 80 -3 24 -7 58 -9 74 -3 17 -8 59 -12
95 -4 36 -8 79 -11 95 -2 17 -6 57 -9 90 -3 33 -7 71 -10 85 -2 14 -6 49 -10
78 -4 28 -10 52 -14 52 -7 0 -75 -74 -92 -101 -18 -28 -9 11 13 56 12 24 19
48 15 51 -4 4 -218 7 -477 6 -258 -1 -470 2 -470 6 0 4 30 8 68 8 37 1 119 5
182 9 63 3 156 8 205 10 50 2 90 5 90 5 0 2 85 6 193 10 39 2 72 4 72 6 0 2
-52 32 -165 94 -16 9 -75 41 -130 70 -55 29 -108 59 -119 66 -19 13 -51 4
-151 -40 -16 -8 -59 -25 -95 -39 -36 -14 -90 -35 -120 -47 -30 -12 -51 -18
-47 -14 7 7 147 66 326 137 30 11 50 22 45 24 -12 3 -402 81 -439 87 -16 3
-75 15 -130 26 -55 11 -111 23 -125 25 -14 2 -59 11 -100 20 -41 8 -86 17
-100 19 -14 3 -50 10 -80 16 -30 6 -64 13 -75 15 -11 2 -42 8 -70 14 -27 6
-68 14 -90 17 -21 3 -42 7 -45 9 -4 2 -29 7 -56 11 -27 3 -57 10 -66 15 -10 6
-18 8 -18 6 0 -3 -19 0 -42 4 -24 5 -54 11 -68 14 -14 3 -36 8 -50 11 -19 4
-2 -18 73 -93 53 -54 97 -103 97 -108 0 -6 -6 -3 -13 5 -7 8 -41 40 -77 70
-36 30 -79 68 -97 84 -68 60 -66 60 -110 8z m1292 -451 c-9 -8 -36 -10 -30 -2
2 4 11 8 20 8 8 0 13 -3 10 -6z m-75 -25 c0 -3 -4 -8 -10 -11 -5 -3 -10 -1
-10 4 0 6 5 11 10 11 6 0 10 -2 10 -4z m-35 -16 c-3 -5 -12 -10 -18 -10 -7 0
-6 4 3 10 19 12 23 12 15 0z m123 -87 c-10 -2 -26 -2 -35 0 -10 3 -2 5 17 5
19 0 27 -2 18 -5z m-1910 -378 c-3 -3 -9 2 -12 12 -6 14 -5 15 5 6 7 -7 10
-15 7 -18z m32 -59 c0 -5 -7 -1 -15 10 -8 10 -14 24 -14 29 0 6 6 1 14 -9 8
-11 15 -24 15 -30z m-466 -539 c-2 -7 -14 -19 -27 -26 -21 -13 -21 -12 2 13
27 29 33 32 25 13z m-444 -619 c0 -39 -2 -69 -5 -66 -7 6 -12 127 -6 133 10
10 11 3 11 -67z m607 35 c-3 -10 -5 -4 -5 12 0 17 2 24 5 18 2 -7 2 -21 0 -30z
m-608 -648 c0 -27 -2 -24 -19 20 -25 62 -25 66 0 35 11 -14 19 -38 19 -55z
m1309 -410 c43 -57 138 -171 144 -173 5 -2 8 -8 8 -13 0 -5 8 -17 18 -27 9
-10 28 -32 42 -51 14 -18 36 -45 50 -61 14 -15 34 -40 44 -55 11 -14 28 -36
39 -48 11 -12 31 -38 46 -57 14 -19 34 -44 44 -54 9 -11 38 -47 63 -80 28 -37
-32 19 -149 139 -108 110 -197 204 -197 208 0 4 -5 13 -10 20 -19 23 -178 278
-187 302 -4 9 20 -18 45 -50z m-298 -415 c-8 -5 -19 -10 -25 -10 -5 0 -3 5 5
10 8 5 20 10 25 10 6 0 3 -5 -5 -10z m937 -62 c-3 -8 -6 -5 -6 6 -1 11 2 17 5
13 3 -3 4 -12 1 -19z m330 -224 c-3 -3 -12 -4 -19 -1 -8 3 -5 6 6 6 11 1 17
-2 13 -5z m2097 -829 c4 -33 9 -71 11 -85 6 -33 15 -114 20 -171 2 -25 6 -58
9 -72 3 -15 0 -27 -5 -27 -5 0 -9 5 -9 11 0 11 -40 117 -72 188 -21 46 -15 61
25 61 14 0 16 7 13 43 -2 23 -7 83 -9 132 -6 92 2 58 17 -80z m-4129 -235 c3
-6 -1 -7 -9 -4 -18 7 -21 14 -7 14 6 0 13 -4 16 -10z m105 -40 c8 -5 11 -10 5
-10 -5 0 -17 5 -25 10 -8 5 -10 10 -5 10 6 0 17 -5 25 -10z m55 -20 c4 -6 10
-8 15 -5 5 3 11 1 15 -5 9 -14 -16 -12 -45 5 -18 10 -20 14 -8 15 9 0 20 -5
23 -10z m145 -475 c58 -3 130 -7 160 -9 30 -3 107 -7 170 -10 147 -8 254 -17
259 -22 2 -2 -108 -1 -245 2 -137 3 -312 6 -388 7 -139 3 -172 12 -124 34 13
6 32 9 43 7 11 -2 67 -6 125 -9z m620 -45 c0 -5 -2 -10 -4 -10 -3 0 -8 5 -11
10 -3 6 -1 10 4 10 6 0 11 -4 11 -10z m1542 -12 c-6 -7 -54 -44 -107 -83 -53
-38 -111 -81 -130 -95 -18 -14 -45 -33 -59 -44 -65 -47 -64 -46 -21 -41 22 3
54 7 70 10 17 2 53 7 80 11 28 3 57 7 65 9 8 1 33 5 55 9 22 3 58 8 80 11 49
8 85 13 149 21 27 3 57 7 66 9 9 2 41 6 71 10 30 3 68 9 84 11 17 3 41 7 55 9
139 19 263 37 278 40 11 2 43 6 73 10 30 3 65 8 79 10 14 2 50 7 80 11 30 4
64 8 75 10 42 7 82 13 125 18 25 3 54 7 65 10 11 2 45 6 75 10 l55 6 -55 -14
c-30 -7 -115 -26 -187 -41 l-133 -28 4 -71 c5 -80 16 -199 21 -235 2 -13 1
-21 -2 -17 -7 7 -8 11 -18 86 -3 25 -10 61 -15 80 -4 19 -11 58 -15 85 -10 78
-14 87 -38 81 -12 -3 -44 -8 -72 -12 -68 -9 -87 -12 -110 -17 -19 -5 -59 -11
-139 -23 -21 -3 -48 -8 -60 -10 -11 -2 -41 -7 -65 -10 -25 -3 -47 -7 -51 -9
-3 -2 -26 -6 -50 -10 -59 -8 -78 -11 -185 -30 -49 -9 -103 -17 -120 -20 -32
-4 -85 -12 -125 -20 -14 -3 -38 -7 -55 -9 -16 -3 -99 -17 -184 -31 -85 -14
-157 -22 -160 -19 -3 4 -1 8 4 10 9 4 166 115 200 141 6 5 23 17 40 27 16 11
34 23 40 28 26 21 170 127 174 127 2 1 -1 -5 -7 -11z m-2320 -93 c78 -74 296
-277 387 -361 84 -76 208 -199 186 -183 -11 8 -24 19 -30 25 -5 6 -71 64 -145
130 -74 65 -141 126 -150 134 -9 8 -49 44 -90 80 -41 36 -97 86 -124 112 -49
46 -75 61 -60 36 5 -9 2 -8 -9 1 -10 8 -15 16 -13 19 3 2 -6 19 -19 37 -26 33
-32 49 -15 43 5 -1 42 -34 82 -73z m1759 -135 c30 -36 63 -74 74 -85 11 -11
21 -29 23 -40 15 -108 18 -108 -49 -5 -171 262 -173 266 -132 225 16 -16 54
-59 84 -95z m-1736 34 c9 -15 12 -23 6 -20 -11 7 -35 46 -28 46 3 0 12 -12 22
-26z m1035 -28 c0 -2 -7 -7 -16 -10 -8 -3 -12 -2 -9 4 6 10 25 14 25 6z m-974
-68 c21 -35 58 -91 82 -125 24 -35 40 -63 35 -63 -11 1 -170 250 -159 250 2 0
22 -28 42 -62z m164 -255 c0 -6 3 -13 8 -15 11 -5 135 -198 130 -203 -2 -3
-24 27 -49 66 -24 39 -48 76 -54 83 -15 18 -33 47 -55 91 -21 40 -21 40 -1 15
11 -14 21 -30 21 -37z m3097 -8 c0 -8 -4 -12 -9 -9 -4 3 -8 9 -8 15 0 5 4 9 8
9 5 0 9 -7 9 -15z m-197 -29 c-18 -17 -160 -31 -160 -15 0 5 3 8 8 6 4 -3 36
1 72 8 92 18 98 18 80 1z m-2519 -93 c13 -15 12 -15 -8 -4 -24 12 -29 21 -14
21 5 0 15 -7 22 -17z m54 -53 c3 -5 1 -10 -4 -10 -6 0 -11 5 -11 10 0 6 2 10
4 10 3 0 8 -4 11 -10z m158 -194 c37 -12 73 -29 80 -36 13 -14 20 -16 -93 27
-105 40 -96 46 13 9z"/>
<path d="M3685 3946 c22 -7 130 -37 240 -66 110 -28 216 -57 235 -63 19 -6 42
-12 50 -13 8 -1 51 -12 95 -24 44 -12 87 -24 95 -26 8 -2 56 -15 105 -29 50
-14 99 -27 110 -29 11 -3 65 -17 120 -31 55 -15 107 -29 115 -30 8 -2 15 -4
15 -5 0 -1 7 -3 15 -5 8 -1 50 -12 93 -24 43 -13 86 -24 95 -26 9 -1 42 -10
73 -19 31 -9 66 -19 78 -21 13 -2 31 -7 41 -10 10 -3 27 -8 37 -10 10 -2 49
-13 88 -24 38 -11 72 -18 74 -16 2 3 -25 18 -60 34 -67 30 -152 70 -353 165
-65 31 -119 56 -121 56 -1 0 -63 29 -136 64 -159 75 -154 74 -249 81 -161 14
-212 18 -315 30 -22 2 -74 7 -115 10 -41 3 -93 8 -115 10 -22 3 -69 7 -105 10
-81 7 -153 14 -205 20 l-40 5 40 -14z"/>
</g>
</svg>
