<?xml version="1.0" encoding="utf-8"?>
<!-- Generator: Adobe Illustrator 19.0.0, SVG Export Plug-In . SVG Version: 6.00 Build 0)  -->
<svg version="1.1" id="Ebene_1" xmlns="http://www.w3.org/2000/svg" xmlns:xlink="http://www.w3.org/1999/xlink" x="0px" y="0px"
	 viewBox="0 0 270.9 345.7" style="enable-background:new 0 0 270.9 345.7;" xml:space="preserve">
<style type="text/css">
	.st0{fill:#D4A464;}
	.st1{fill:#83431E;}
	.st2{fill:#DEB58F;}
	.st3{fill:#3A1B0E;}
	.st4{fill:#AA7B56;}
	.st5{fill:#D2A275;}
	.st6{fill:#B57F37;}
	.st7{fill:#4F2F14;}
	.st8{fill:#D7A867;}
	.st9{fill:#CB925B;}
	.st10{fill:#4F2F12;}
	.st11{fill:#663525;}
	.st12{fill:#D6A96A;}
	.st13{fill:#65311A;}
	.st14{fill:#1D1413;}
	.st15{fill:#D8A76E;}
	.st16{fill:#DDCDBB;}
	.st17{fill:#72441D;}
	.st18{fill:#D5AE85;}
	.st19{fill:#C0905F;}
	.st20{fill:#563017;}
	.st21{fill:#AE6D3C;}
	.st22{fill:#894B15;}
	.st23{fill:#86533C;}
	.st24{fill:#B9835C;}
	.st25{fill:#91634E;}
	.st26{fill:#6A401A;}
	.st27{fill:#CDA26D;}
	.st28{fill:#A16A3D;}
	.st29{fill:#582A1A;}
	.st30{fill:#D5A568;}
	.st31{fill:#BDA17F;}
	.st32{fill:#BE986C;}
	.st33{fill:#834D32;}
	.st34{fill:none;stroke:#000000;}
	.st35{fill:#C79C67;}
	.st36{fill:#BE7F41;}
	.st37{fill:#502206;}
	.st38{fill:#A27952;}
	.st39{fill:#B68749;}
	.st40{fill:#B88E56;}
	.st41{fill:#624227;}
	.st42{fill:#553122;}
	.st43{fill:#B2825C;}
</style>
<polygon id="XMLID_1_" class="st0" points="194.1,33.9 228.3,33.9 211.2,71 194.1,108.3 177,71.1 159.9,33.9 "/>
<polygon id="XMLID_2_" class="st1" points="211.1,179.9 254.4,179.9 232.8,217 211.1,254.3 189.5,217.1 167.8,179.9 "/>
<polygon id="XMLID_5_" class="st2" points="137.4,175.6 137.7,148 192.2,162.4 246.8,176.8 192,190 137.1,203.2 "/>
<polygon id="XMLID_6_" class="st3" points="82,135.6 138.9,145.3 136.3,203 "/>
<polygon id="XMLID_7_" class="st4" points="253.2,188.1 258.4,245.6 202,257.9 "/>
<polygon id="XMLID_8_" class="st5" points="258.7,254.6 269.1,280.1 213.4,287.9 157.5,295.8 202.9,262.4 248.3,229 "/>
<rect id="XMLID_9_" x="40" y="103.9" class="st6" width="30" height="71"/>
<rect id="XMLID_10_" x="153.4" y="292.9" transform="matrix(-0.9866 0.1629 -0.1629 -0.9866 425.7073 573.2183)" class="st7" width="71.9" height="22.3"/>
<polygon id="XMLID_11_" class="st8" points="140.8,286.1 159.6,315.3 137.9,342.2 105.5,329.7 107.3,295 "/>
<polygon id="XMLID_12_" class="st9" points="29,116.4 40.6,147.6 35.6,169.9 20.8,152.4 16.8,119.4 "/>
<polygon id="XMLID_13_" class="st10" points="44.5,106.8 17.1,123.2 17.4,92.5 17.6,61.7 44.8,76.1 71.9,90.5 "/>
<polygon id="XMLID_14_" class="st11" points="89.7,185.2 65.9,191.3 68.2,150.5 70.4,109.7 92,144.4 113.5,179.2 "/>
<polygon id="XMLID_15_" class="st12" points="78.8,190 111.4,176.9 135.8,202.1 "/>
<polygon id="XMLID_16_" class="st13" points="147.4,201.8 175.3,191.7 188.8,218.1 "/>
<polygon id="XMLID_17_" class="st14" points="227.3,317.5 224.8,287.9 253.8,281.8 "/>
<polygon id="XMLID_18_" class="st15" points="70.9,28.1 87.1,59.8 59.5,84.5 26.2,68.2 33.2,33.3 "/>
<polygon id="XMLID_19_" class="st16" points="33.3,34 51.1,11.3 75.1,27.3 "/>
<polygon id="XMLID_20_" class="st17" points="135.5,58 85.2,59.3 87.1,9 "/>
<rect id="XMLID_21_" x="100.4" y="15.5" transform="matrix(-0.762 -0.6476 0.6476 -0.762 202.187 135.3059)" class="st18" width="51.2" height="30"/>
<polygon id="XMLID_22_" class="st19" points="111.3,4.5 97.6,26.1 78.7,8.8 "/>
<polygon id="XMLID_23_" class="st20" points="135.6,59.2 161.8,31 173,67.8 "/>
<polygon id="XMLID_24_" class="st21" points="198.6,18.7 153.6,37.2 119.1,3 "/>
<polygon id="XMLID_25_" class="st22" points="217.9,100.8 195.5,101 206.3,69 217.1,37.1 228.7,68.8 240.2,100.5 "/>
<polygon id="XMLID_26_" class="st23" points="53.2,285.2 30.4,308.1 16.2,271.1 2,234.1 39.1,248.2 76.1,262.3 "/>
<polygon id="XMLID_28_" class="st24" points="70.6,259.5 63.8,237.9 5.1,235.9 "/>
<polygon id="XMLID_29_" class="st25" points="140.8,286.1 152,298.9 180.2,278.8 "/>
<polygon id="XMLID_30_" class="st26" points="253,195.1 261.1,261.2 265.2,234.2 "/>
<polygon id="XMLID_31_" class="st27" points="127.6,338.8 68.2,316.5 92.5,336.8 "/>
<polygon id="XMLID_32_" class="st28" points="107,331.2 107,282 52.9,280.8 "/>
<polygon id="XMLID_33_" class="st29" points="86.4,332.7 54.7,283.5 28.1,305.8 "/>
<polygon id="XMLID_34_" class="st30" points="103.5,281.9 107.3,295 134.1,285.4 "/>
<polygon id="XMLID_35_" class="st31" points="199.1,19.1 161,34.4 221.3,31.2 "/>
<polygon id="XMLID_36_" class="st32" points="73.8,260 56.8,278.8 99.9,281.5 "/>
<polygon id="XMLID_37_" class="st33" points="73.2,117.4 84.6,136.7 151.3,147.4 "/>
<path id="XMLID_27_" class="st34" d="M235.5,172.2"/>
<polygon id="XMLID_39_" class="st35" points="143.8,147.9 194.3,152.6 237.6,172.9 "/>
<polygon id="XMLID_38_" class="st36" points="140.4,338.1 159.6,315.3 224,311.8 190.3,332 "/>
<polygon id="XMLID_70_" class="st37" points="39.1,108.4 41.3,144.7 21.5,116.1 "/>
<polygon id="XMLID_71_" class="st38" points="56.7,286.1 79.8,321.3 105.5,329.7 "/>
<polygon id="XMLID_72_" class="st39" points="228.3,319.7 190.3,332 225.1,305.2 "/>
<polygon id="XMLID_73_" class="st40" points="71.4,71.9 69.1,103.5 41.6,106.4 "/>
<polygon id="XMLID_74_" class="st41" points="15.2,57.6 27.4,68 34.5,30.4 "/>
<polygon id="XMLID_54_" class="st42" points="86.7,56.9 57.3,13.2 79.5,10 88.1,16.8 "/>
<polygon id="XMLID_56_" class="st14" points="194.1,108.3 212.9,68.1 170.4,56.9 "/>
<polygon id="XMLID_57_" class="st43" points="238.6,96.6 217.5,49.3 231.3,33.8 "/>
<g id="XMLID_119_">
</g>
<g id="XMLID_120_">
</g>
<g id="XMLID_121_">
</g>
<g id="XMLID_122_">
</g>
<g id="XMLID_123_">
</g>
<g id="XMLID_124_">
</g>
<g id="XMLID_125_">
</g>
<g id="XMLID_126_">
</g>
<g id="XMLID_127_">
</g>
<g id="XMLID_128_">
</g>
<g id="XMLID_129_">
</g>
<g id="XMLID_130_">
</g>
<g id="XMLID_131_">
</g>
<g id="XMLID_132_">
</g>
<g id="XMLID_133_">
</g>
</svg>
